<svg xmlns="http://www.w3.org/2000/svg" version="1.1" xmlns:xlink="http://www.w3.org/1999/xlink" width="512" height="512" x="0" y="0" viewBox="0 0 60 60" style="enable-background:new 0 0 512 512" xml:space="preserve" class=""><g><path fill="#e64c3c" d="M59 13v9H1v-9c0-3.31 2.69-6 6-6h46c3.31 0 6 2.69 6 6z" opacity="1" data-original="#e64c3c"></path><path fill="#ecf0f1" d="M59 22v31c0 3.31-2.69 6-6 6H7c-3.31 0-6-2.69-6-6V22z" opacity="1" data-original="#ecf0f1"></path><path fill="#802f34" d="M27 10c-1.21.91-2 2.37-2 4 0 2.76 2.24 5 5 5s5-2.24 5-5c0-1.63-.79-3.09-2-4zM45 10c-1.21.91-2 2.37-2 4 0 2.76 2.24 5 5 5s5-2.24 5-5c0-1.63-.79-3.09-2-4zM9 10c-1.21.91-2 2.37-2 4 0 2.76 2.24 5 5 5s5-2.24 5-5c0-1.63-.79-3.09-2-4z" opacity="1" data-original="#802f34"></path><g fill="#d1d4d1"><rect width="9" height="7" x="19" y="26" rx="1" fill="#d1d4d1" opacity="1" data-original="#d1d4d1"></rect><rect width="9" height="7" x="32" y="26" rx="1" fill="#d1d4d1" opacity="1" data-original="#d1d4d1"></rect><rect width="9" height="7" x="45" y="26" rx="1" fill="#d1d4d1" opacity="1" data-original="#d1d4d1"></rect><rect width="9" height="7" x="19" y="37" rx="1" fill="#d1d4d1" opacity="1" data-original="#d1d4d1"></rect><rect width="9" height="7" x="32" y="37" rx="1" fill="#d1d4d1" opacity="1" data-original="#d1d4d1"></rect><rect width="9" height="7" x="6" y="37" rx="1" fill="#d1d4d1" opacity="1" data-original="#d1d4d1"></rect><rect width="9" height="7" x="45" y="37" rx="1" fill="#d1d4d1" opacity="1" data-original="#d1d4d1"></rect><rect width="9" height="7" x="19" y="48" rx="1" fill="#d1d4d1" opacity="1" data-original="#d1d4d1"></rect><rect width="9" height="7" x="32" y="48" rx="1" fill="#d1d4d1" opacity="1" data-original="#d1d4d1"></rect><rect width="9" height="7" x="6" y="48" rx="1" fill="#d1d4d1" opacity="1" data-original="#d1d4d1"></rect></g><rect width="6" height="14" x="27" y="1" fill="#547580" rx="3" opacity="1" data-original="#547580"></rect><rect width="6" height="14" x="45" y="1" fill="#547580" rx="3" opacity="1" data-original="#547580"></rect><rect width="6" height="14" x="9" y="1" fill="#547580" rx="3" opacity="1" data-original="#547580"></rect></g></svg>