<svg xmlns="http://www.w3.org/2000/svg" version="1.1" xmlns:xlink="http://www.w3.org/1999/xlink" width="512" height="512" x="0" y="0" viewBox="0 0 512 512" style="enable-background:new 0 0 512 512" xml:space="preserve" class=""><g><path d="M497.573 233.143h-102.29l-45.714 45.714h80.146a27.101 27.101 0 0 1 12.197 2.99zM265.143 443.429h36.581v18.286h-36.581zM457.143 306.286v168.283l52.114-52.114A8.952 8.952 0 0 0 512 416V244.818l-57.353 50.185a27.09 27.09 0 0 1 2.496 11.283zM207.543 495.671l.165-.155a9.139 9.139 0 0 0 2.578-6.373V306.286a9.143 9.143 0 0 0-9.143-9.143h-192A9.143 9.143 0 0 0 0 306.286v182.857a9.143 9.143 0 0 0 9.143 9.143h192a9.083 9.083 0 0 0 6.4-2.615zM91.429 461.714c0 10.099-8.187 18.286-18.286 18.286H36.571c-10.099 0-18.286-8.187-18.286-18.286v-18.286c0-10.099 8.187-18.286 18.286-18.286h36.571c10.099 0 18.286 8.187 18.286 18.286v18.286zM182.857 480h-27.429a9.143 9.143 0 0 1 0-18.286h27.429a9.143 9.143 0 0 1 0 18.286zm0-36.571h-27.429a9.143 9.143 0 0 1 0-18.286h27.429a9.143 9.143 0 0 1 0 18.286z" fill="#000000" opacity="1" data-original="#000000"></path><path d="M36.571 443.429h36.581v18.286H36.571zM436.014 495.717l.101-.174.174-.165a9.14 9.14 0 0 0 2.569-6.235V306.286a9.143 9.143 0 0 0-9.143-9.143h-192a9.143 9.143 0 0 0-9.143 9.143v182.857a9.143 9.143 0 0 0 9.143 9.143h192a9.146 9.146 0 0 0 6.299-2.569zM320 461.714c0 10.099-8.187 18.286-18.286 18.286h-36.571c-10.099 0-18.286-8.187-18.286-18.286v-18.286c0-10.099 8.187-18.286 18.286-18.286h36.571c10.099 0 18.286 8.187 18.286 18.286zM411.429 480H384a9.143 9.143 0 0 1 0-18.286h27.429a9.143 9.143 0 0 1 0 18.286zm0-36.571H384a9.143 9.143 0 0 1 0-18.286h27.429a9.143 9.143 0 0 1 0 18.286zM332.197 62.418l55.662-48.704h-73.865l-58.77 45.714H320a27.114 27.114 0 0 1 12.197 2.99zM213.083 16.347a9.115 9.115 0 0 1-1.289 1.097l-59.776 41.984h73.417l58.77-45.714h-64.777a8.883 8.883 0 0 0-6.345 2.633zM399.543 202.971a8.95 8.95 0 0 0 2.743-6.4V25.39l-57.353 50.185a27.086 27.086 0 0 1 2.496 11.282v168.311zM94.226 235.776a9.115 9.115 0 0 1-1.289 1.097l-59.776 41.984h69.093a27.106 27.106 0 0 1-1.682-9.143v-36.571a8.88 8.88 0 0 0-6.346 2.633zM155.429 224h36.581v18.286h-36.581z" fill="#000000" opacity="1" data-original="#000000"></path><path d="M128 278.857h192a9.086 9.086 0 0 0 6.4-2.606l.183-.183a9.086 9.086 0 0 0 2.56-6.354V86.857A9.143 9.143 0 0 0 320 77.714H128a9.143 9.143 0 0 0-9.143 9.143v182.857a9.143 9.143 0 0 0 9.143 9.143zm146.286-73.143h27.429a9.143 9.143 0 0 1 0 18.286h-27.429a9.143 9.143 0 0 1 0-18.286zm0 36.572h27.429a9.143 9.143 0 0 1 0 18.286h-27.429a9.143 9.143 0 0 1 0-18.286zM137.143 224c0-10.099 8.187-18.286 18.286-18.286H192c10.099 0 18.286 8.187 18.286 18.286v18.286c0 10.099-8.187 18.286-18.286 18.286h-36.571c-10.099 0-18.286-8.187-18.286-18.286z" fill="#000000" opacity="1" data-original="#000000"></path></g></svg>