<svg xmlns="http://www.w3.org/2000/svg" version="1.1" xmlns:xlink="http://www.w3.org/1999/xlink" width="512" height="512" x="0" y="0" viewBox="0 0 52 59" style="enable-background:new 0 0 512 512" xml:space="preserve" class=""><g><g fill="none" fill-rule="nonzero" transform="translate(-1)"><path fill="#95a5a5" d="M22 49h10v6H22z" opacity="1" data-original="#95a5a5"></path><path fill="#90bae1" d="M1 44.042V18.189a1.166 1.166 0 0 1 1.083-1.23h49.834c.637.043 1.12.592 1.083 1.23v25.853H1Z" opacity="1" data-original="#90bae1"></path><path fill="#7f8c8d" d="M34.92 59H19.08a1 1 0 0 1-.78-1.625l2.4-3a1 1 0 0 1 .78-.375h11.04a1 1 0 0 1 .78.375l2.4 3A1 1 0 0 1 34.92 59Z" opacity="1" data-original="#7f8c8d"></path><path fill="#2980ba" d="M36 24V3a2.12 2.12 0 0 0-2.222-2H8.222A2.12 2.12 0 0 0 6 3v21" opacity="1" data-original="#2980ba"></path><path fill="#e6e7e8" d="M6 23h30v20H6z" opacity="1" data-original="#e6e7e8"></path><path fill="#3b97d3" d="M36 10v13H6V10a2.12 2.12 0 0 1 2.22-2h25.56A2.12 2.12 0 0 1 36 10Z" opacity="1" data-original="#3b97d3"></path><path fill="#2fa8cc" d="M36 17v6H6v-6a2.006 2.006 0 0 1 2-2h26a2.006 2.006 0 0 1 2 2Z" opacity="1" data-original="#2fa8cc"></path><path fill="#f3d55b" d="M10 20a.838.838 0 0 1-.38-.08 1.163 1.163 0 0 1-.33-.21l-.12-.15a.76.76 0 0 1-.09-.18.636.636 0 0 1-.06-.18A1.325 1.325 0 0 1 9 19a1.05 1.05 0 0 1 .29-.71c.097-.088.209-.16.33-.21a.96.96 0 0 1 .58-.06c.063.01.123.031.18.06a.762.762 0 0 1 .18.09l.15.12c.088.097.16.209.21.33A1 1 0 0 1 11 19a1.054 1.054 0 0 1-.29.71 1.6 1.6 0 0 1-.15.12.762.762 0 0 1-.18.09.653.653 0 0 1-.18.06 1.379 1.379 0 0 1-.2.02Z" opacity="1" data-original="#f3d55b"></path><path fill="#fb7b76" d="M14 20a1.378 1.378 0 0 1-.2-.02.653.653 0 0 1-.18-.06.768.768 0 0 1-.18-.09 1.48 1.48 0 0 1-.15-.12A1.051 1.051 0 0 1 13 19a1 1 0 0 1 .08-.38c.048-.122.12-.234.21-.33l.15-.12a.768.768 0 0 1 .18-.09.636.636 0 0 1 .18-.06.96.96 0 0 1 .58.06c.122.049.234.12.33.21.088.098.16.21.21.33A.838.838 0 0 1 15 19a1.393 1.393 0 0 1-.02.2.653.653 0 0 1-.06.18.76.76 0 0 1-.09.18l-.12.15c-.096.09-.208.161-.33.21A1 1 0 0 1 14 20Z" opacity="1" data-original="#fb7b76"></path><path fill="#b0d3f0" d="M18 20a1.052 1.052 0 0 1-.71-.29 1.036 1.036 0 0 1-.21-.33A.999.999 0 0 1 17 19c.002-.067.008-.134.02-.2a.637.637 0 0 1 .06-.18.766.766 0 0 1 .09-.18c.037-.053.077-.103.12-.15.243-.23.58-.33.91-.27.063.01.123.031.18.06a.762.762 0 0 1 .18.09l.15.12c.043.047.083.097.12.15a.766.766 0 0 1 .09.18.654.654 0 0 1 .06.18c.011.066.018.133.02.2a1 1 0 0 1-.08.38.96.96 0 0 1-.92.62Z" opacity="1" data-original="#b0d3f0"></path><path fill="#f0c419" d="M10 13a.838.838 0 0 1-.38-.08 1.163 1.163 0 0 1-.33-.21l-.12-.15a.76.76 0 0 1-.09-.18.636.636 0 0 1-.06-.18A1.325 1.325 0 0 1 9 12a1.05 1.05 0 0 1 .29-.71c.097-.088.209-.16.33-.21a.96.96 0 0 1 .58-.06c.063.01.123.03.18.06a.762.762 0 0 1 .18.09l.15.12c.088.097.16.208.21.329A1 1 0 0 1 11 12a1.054 1.054 0 0 1-.29.71 1.6 1.6 0 0 1-.15.12.762.762 0 0 1-.18.09.653.653 0 0 1-.18.06 1.379 1.379 0 0 1-.2.02Z" opacity="1" data-original="#f0c419"></path><path fill="#ff5364" d="M14 13a1.378 1.378 0 0 1-.2-.02.653.653 0 0 1-.18-.06.768.768 0 0 1-.18-.09 1.48 1.48 0 0 1-.15-.12A1.051 1.051 0 0 1 13 12a1 1 0 0 1 .08-.38c.048-.122.12-.234.21-.33l.15-.12a.768.768 0 0 1 .18-.09.636.636 0 0 1 .18-.06.96.96 0 0 1 .58.06c.122.049.234.12.33.211.088.097.16.209.21.33A.838.838 0 0 1 15 12a1.393 1.393 0 0 1-.02.2.653.653 0 0 1-.06.18.76.76 0 0 1-.09.18l-.12.15c-.096.09-.208.161-.33.21A1 1 0 0 1 14 13Z" opacity="1" data-original="#ff5364"></path><path fill="#90bae1" d="M18 13a1.052 1.052 0 0 1-.71-.29 1.036 1.036 0 0 1-.21-.33A.999.999 0 0 1 17 12c.002-.067.008-.134.02-.2a.637.637 0 0 1 .06-.18.766.766 0 0 1 .09-.18c.037-.053.077-.103.12-.15.243-.23.58-.33.91-.27.063.01.123.031.18.06a.762.762 0 0 1 .18.09l.15.12c.043.047.083.097.12.15a.766.766 0 0 1 .09.18.654.654 0 0 1 .06.18c.011.066.018.133.02.2a1 1 0 0 1-.08.38.96.96 0 0 1-.92.62Z" opacity="1" data-original="#90bae1"></path><path fill="#f29c1f" d="M10 6a.838.838 0 0 1-.38-.08 1.163 1.163 0 0 1-.33-.21l-.12-.15a.76.76 0 0 1-.09-.18.636.636 0 0 1-.06-.18A1.325 1.325 0 0 1 9 5a1.05 1.05 0 0 1 .29-.71c.097-.088.209-.16.33-.21a.96.96 0 0 1 .58-.06c.063.01.123.031.18.06a.762.762 0 0 1 .18.09l.15.12c.088.097.16.209.21.33A1 1 0 0 1 11 5a1.054 1.054 0 0 1-.29.71 1.6 1.6 0 0 1-.15.12.762.762 0 0 1-.18.09.653.653 0 0 1-.18.06A1.379 1.379 0 0 1 10 6Z" opacity="1" data-original="#f29c1f"></path><path fill="#df4d60" d="M14 6a1.378 1.378 0 0 1-.2-.02.653.653 0 0 1-.18-.06.768.768 0 0 1-.18-.09 1.48 1.48 0 0 1-.15-.12A1.051 1.051 0 0 1 13 5a1 1 0 0 1 .08-.38c.048-.122.12-.234.21-.33l.15-.12a.768.768 0 0 1 .18-.09.636.636 0 0 1 .18-.06.96.96 0 0 1 .58.06c.122.048.234.12.33.21.088.097.16.209.21.33A.838.838 0 0 1 15 5a1.393 1.393 0 0 1-.02.2.653.653 0 0 1-.06.18.76.76 0 0 1-.09.18l-.12.15c-.096.09-.208.161-.33.21A1 1 0 0 1 14 6Z" opacity="1" data-original="#df4d60"></path><path fill="#2fa8cc" d="M18 6a1.052 1.052 0 0 1-.71-.29 1.036 1.036 0 0 1-.21-.33A.999.999 0 0 1 17 5c.002-.067.008-.134.02-.2a.637.637 0 0 1 .06-.18.766.766 0 0 1 .09-.18c.037-.053.077-.103.12-.15.243-.23.58-.33.91-.27.063.01.123.031.18.06a.762.762 0 0 1 .18.09l.15.12c.043.047.083.097.12.15a.766.766 0 0 1 .09.18.654.654 0 0 1 .06.18c.011.066.018.133.02.2a1 1 0 0 1-.08.38A.96.96 0 0 1 18 6Z" opacity="1" data-original="#2fa8cc"></path><path fill="#f29c1f" d="M13 34a3.78 3.78 0 0 1-4-3.5 3.78 3.78 0 0 1 4-3.5 3.78 3.78 0 0 1 4 3.5 1 1 0 0 1-2 0c0-.813-.916-1.5-2-1.5s-2 .687-2 1.5.916 1.5 2 1.5a1 1 0 0 1 0 2Z" opacity="1" data-original="#f29c1f"></path><path fill="#f29c1f" d="M13 39a3.78 3.78 0 0 1-4-3.5 1 1 0 0 1 2 0c0 .813.916 1.5 2 1.5s2-.687 2-1.5-.916-1.5-2-1.5a1 1 0 0 1 0-2 3.78 3.78 0 0 1 4 3.5 3.78 3.78 0 0 1-4 3.5ZM13 29a1 1 0 0 1-1-1v-1a1 1 0 0 1 2 0v1a1 1 0 0 1-1 1Z" opacity="1" data-original="#f29c1f"></path><path fill="#f29c1f" d="M13 40a1 1 0 0 1-1-1v-1a1 1 0 0 1 2 0v1a1 1 0 0 1-1 1Z" opacity="1" data-original="#f29c1f"></path><rect width="11" height="7" x="21" y="27" fill="#95a5a5" rx="1" opacity="1" data-original="#95a5a5"></rect><path fill="#95a5a5" d="M24 39h-3a1 1 0 0 1 0-2h3a1 1 0 0 1 0 2ZM32 39h-4a1 1 0 0 1 0-2h4a1 1 0 0 1 0 2Z" opacity="1" data-original="#95a5a5"></path><path fill="#ff5364" d="M44 40a1 1 0 0 1-1-1v-4a1 1 0 0 1 2 0v4a1 1 0 0 1-1 1Z" opacity="1" data-original="#ff5364"></path><path fill="#ff5364" d="M48.001 36a.999.999 0 0 1-.833-.445L44 30.803l-3.168 4.752a1 1 0 1 1-1.664-1.11l4-6a1.038 1.038 0 0 1 1.664 0l4 6A1 1 0 0 1 48.001 36ZM44 26a1 1 0 0 1-1-1v-4a1 1 0 0 1 2 0v4a1 1 0 0 1-1 1Z" opacity="1" data-original="#ff5364"></path><path fill="#ff5364" d="M48.001 22a.999.999 0 0 1-.833-.445L44 16.803l-3.168 4.752a1 1 0 0 1-1.664-1.11l4-6a1.038 1.038 0 0 1 1.664 0l4 6A1 1 0 0 1 48.001 22ZM44 12a1 1 0 0 1-1-1V7a1 1 0 0 1 2 0v4a1 1 0 0 1-1 1Z" opacity="1" data-original="#ff5364"></path><path fill="#ff5364" d="M48.001 8a.999.999 0 0 1-.833-.445L44 2.803l-3.168 4.752a1 1 0 0 1-1.664-1.11l4-6a1.038 1.038 0 0 1 1.664 0l4 6A1 1 0 0 1 48.001 8Z" opacity="1" data-original="#ff5364"></path><path fill="#5e5f62" d="M34.92 59H19.08a.997.997 0 0 1-.78-1.62l.3-.38h16.8l.3.38a.997.997 0 0 1-.78 1.62Z" opacity="1" data-original="#5e5f62"></path><path fill="#7f8c8d" d="M53 42v5a2.996 2.996 0 0 1-3 3H4a2.996 2.996 0 0 1-3-3v-5h52Z" opacity="1" data-original="#7f8c8d"></path></g></g></svg>