<svg xmlns="http://www.w3.org/2000/svg" version="1.1" xmlns:xlink="http://www.w3.org/1999/xlink" width="512" height="512" x="0" y="0" viewBox="0 0 54 60" style="enable-background:new 0 0 512 512" xml:space="preserve" class=""><g><g fill="#000" fill-rule="nonzero"><path d="M4 51h17v2.062a1.985 1.985 0 0 0-1.081.689l-2.4 3A2 2 0 0 0 19.081 60h15.838a2 2 0 0 0 1.562-3.249l-2.4-3A1.989 1.989 0 0 0 33 53.062V51h17a4 4 0 0 0 4-4V19a4 4 0 0 0-4-4h-4.8l-.37-.555a1.039 1.039 0 0 0-1.664 0L42.8 15H37V3a3.12 3.12 0 0 0-3.222-3H8.222A3.12 3.12 0 0 0 5 3v12H4a4 4 0 0 0-4 4v28a4 4 0 0 0 4 4Zm30.927 7H19.081l2.4-3H32.52l2.407 3ZM31 53h-8v-2h8v2Zm19-4H4a2 2 0 0 1-2-2v-4h50v4a2 2 0 0 1-2 2ZM7 17a1 1 0 0 1 1-1h26a1 1 0 0 1 1 1v5H7v-5Zm28-2.816A2.966 2.966 0 0 0 34 14H8c-.341.003-.68.066-1 .184V10c.068-.61.61-1.054 1.222-1h25.556A1.129 1.129 0 0 1 35 10v4.184ZM7 24h28v17H7V24Zm34.465-7-2.3 3.445a1 1 0 1 0 1.664 1.11L44 16.8l3.168 4.752a1 1 0 1 0 1.664-1.11L46.535 17H50a2 2 0 0 1 2 2v22H37V17h4.465ZM8.222 2h25.556A1.129 1.129 0 0 1 35 3v4.227A3.4 3.4 0 0 0 33.778 7H8.222A3.4 3.4 0 0 0 7 7.227V3c.068-.61.61-1.054 1.222-1ZM4 17h1v24H2V19a2 2 0 0 1 2-2Z" fill="#000000" opacity="1" data-original="#000000" class=""></path><path d="m10.71 18.29-.15-.12a.757.757 0 0 0-.18-.09.636.636 0 0 0-.18-.06.956.956 0 0 0-.58.06c-.121.05-.233.122-.33.21A1.052 1.052 0 0 0 9 19c.002.067.008.134.02.2.01.063.031.123.06.18a.757.757 0 0 0 .09.18l.12.15c.097.088.209.16.33.21A.838.838 0 0 0 10 20c.067-.002.134-.008.2-.02a.636.636 0 0 0 .18-.06.757.757 0 0 0 .18-.09c.052-.037.102-.077.15-.12.183-.192.286-.445.29-.71a1 1 0 0 0-.08-.38 1.155 1.155 0 0 0-.21-.33ZM14.71 18.29a1.032 1.032 0 0 0-.33-.21.956.956 0 0 0-.58-.06.636.636 0 0 0-.18.06.757.757 0 0 0-.18.09l-.15.12c-.09.096-.162.208-.21.33A1 1 0 0 0 13 19c.004.265.107.518.29.71.048.043.098.083.15.12a.757.757 0 0 0 .18.09c.057.029.117.05.18.06.066.012.133.018.2.02a1 1 0 0 0 .38-.08c.122-.048.234-.12.33-.21l.12-.15a.757.757 0 0 0 .09-.18.636.636 0 0 0 .06-.18c.012-.066.018-.133.02-.2a.838.838 0 0 0-.08-.38 1.155 1.155 0 0 0-.21-.33ZM18.92 18.62a.757.757 0 0 0-.09-.18 1.576 1.576 0 0 0-.12-.15l-.15-.12a.757.757 0 0 0-.18-.09.636.636 0 0 0-.18-.06c-.33-.06-.667.04-.91.27a1.576 1.576 0 0 0-.12.15.757.757 0 0 0-.09.18.636.636 0 0 0-.06.18 1.355 1.355 0 0 0-.02.2 1 1 0 0 0 .08.38c.048.122.12.234.21.33a1.014 1.014 0 0 0 1.42 0c.09-.096.162-.208.21-.33A1 1 0 0 0 19 19a1.355 1.355 0 0 0-.02-.2.636.636 0 0 0-.06-.18ZM10.71 11.29l-.15-.12a.757.757 0 0 0-.18-.09.636.636 0 0 0-.18-.06.956.956 0 0 0-.58.06c-.121.05-.233.122-.33.21A1.052 1.052 0 0 0 9 12c.002.067.008.134.02.2.01.063.031.123.06.18a.757.757 0 0 0 .09.18l.12.15c.097.088.209.16.33.21A.838.838 0 0 0 10 13c.067-.002.134-.008.2-.02a.636.636 0 0 0 .18-.06.757.757 0 0 0 .18-.09c.052-.037.102-.077.15-.12.183-.192.286-.445.29-.71a1 1 0 0 0-.08-.38 1.155 1.155 0 0 0-.21-.33ZM14.71 11.29a1.032 1.032 0 0 0-.33-.21.956.956 0 0 0-.58-.06.636.636 0 0 0-.18.06.757.757 0 0 0-.18.09l-.15.12c-.09.096-.162.208-.21.33A1 1 0 0 0 13 12c.004.265.107.518.29.71.048.043.098.083.15.12a.757.757 0 0 0 .18.09c.057.029.117.05.18.06.066.012.133.018.2.02a1 1 0 0 0 .38-.08c.122-.048.234-.12.33-.21l.12-.15a.757.757 0 0 0 .09-.18.636.636 0 0 0 .06-.18c.012-.066.018-.133.02-.2a.838.838 0 0 0-.08-.38 1.155 1.155 0 0 0-.21-.33ZM18.92 11.62a.757.757 0 0 0-.09-.18 1.576 1.576 0 0 0-.12-.15l-.15-.12a.757.757 0 0 0-.18-.09.636.636 0 0 0-.18-.06c-.33-.06-.667.04-.91.27a1.576 1.576 0 0 0-.12.15.757.757 0 0 0-.09.18.636.636 0 0 0-.06.18 1.355 1.355 0 0 0-.02.2 1 1 0 0 0 .08.38c.048.122.12.234.21.33a1.014 1.014 0 0 0 1.42 0c.09-.096.162-.208.21-.33A1 1 0 0 0 19 12a1.355 1.355 0 0 0-.02-.2.636.636 0 0 0-.06-.18ZM9.08 5.38a.757.757 0 0 0 .09.18l.12.15c.097.088.209.16.33.21A.838.838 0 0 0 10 6c.067-.002.134-.008.2-.02a.636.636 0 0 0 .18-.06.757.757 0 0 0 .18-.09c.052-.037.102-.077.15-.12.183-.192.286-.445.29-.71a1 1 0 0 0-.08-.38 1.155 1.155 0 0 0-.21-.33l-.15-.12a.757.757 0 0 0-.18-.09.636.636 0 0 0-.18-.06.956.956 0 0 0-.58.06c-.121.05-.233.122-.33.21A1.052 1.052 0 0 0 9 5c.002.067.008.134.02.2.01.063.031.123.06.18ZM13.44 5.83a.757.757 0 0 0 .18.09c.057.029.117.05.18.06.066.012.133.018.2.02a1 1 0 0 0 .38-.08c.122-.048.234-.12.33-.21l.12-.15a.757.757 0 0 0 .09-.18.636.636 0 0 0 .06-.18c.012-.066.018-.133.02-.2a.838.838 0 0 0-.08-.38 1.155 1.155 0 0 0-.21-.33 1.032 1.032 0 0 0-.33-.21.956.956 0 0 0-.58-.06.636.636 0 0 0-.18.06.757.757 0 0 0-.18.09l-.15.12c-.09.096-.162.208-.21.33A1 1 0 0 0 13 5c.004.265.107.518.29.71.048.043.098.083.15.12ZM17.29 5.71a1.014 1.014 0 0 0 1.42 0c.09-.096.162-.208.21-.33A1 1 0 0 0 19 5a1.355 1.355 0 0 0-.02-.2.636.636 0 0 0-.06-.18.757.757 0 0 0-.09-.18 1.576 1.576 0 0 0-.12-.15l-.15-.12a.757.757 0 0 0-.18-.09.636.636 0 0 0-.18-.06c-.33-.06-.667.04-.91.27a1.576 1.576 0 0 0-.12.15.757.757 0 0 0-.09.18.636.636 0 0 0-.06.18A1.355 1.355 0 0 0 17 5a1 1 0 0 0 .08.38c.048.122.12.234.21.33ZM13 29c1.084 0 2 .687 2 1.5a1 1 0 0 0 2 0 3.621 3.621 0 0 0-3-3.376V27a1 1 0 0 0-2 0v.124A3.621 3.621 0 0 0 9 30.5a3.779 3.779 0 0 0 4 3.5c1.084 0 2 .687 2 1.5s-.916 1.5-2 1.5-2-.687-2-1.5a1 1 0 0 0-2 0 3.621 3.621 0 0 0 3 3.376V39a1 1 0 0 0 2 0v-.124a3.621 3.621 0 0 0 3-3.376 3.779 3.779 0 0 0-4-3.5c-1.084 0-2-.687-2-1.5s.916-1.5 2-1.5ZM31 26h-9a2 2 0 0 0-2 2v5a2 2 0 0 0 2 2h9a2 2 0 0 0 2-2v-5a2 2 0 0 0-2-2Zm-9 7v-5h9v5h-9ZM24 37h-3a1 1 0 0 0 0 2h3a1 1 0 0 0 0-2ZM32 37h-4a1 1 0 0 0 0 2h4a1 1 0 0 0 0-2ZM44 34a1 1 0 0 0-1 1v4a1 1 0 0 0 2 0v-4a1 1 0 0 0-1-1Z" fill="#000000" opacity="1" data-original="#000000" class=""></path><path d="M40.832 35.555 44 30.8l3.168 4.752a1 1 0 1 0 1.664-1.11l-4-6a1.039 1.039 0 0 0-1.664 0l-4 6a1 1 0 0 0 1.664 1.11v.003ZM44 26a1 1 0 0 0 1-1v-4a1 1 0 0 0-2 0v4a1 1 0 0 0 1 1ZM43 7v4a1 1 0 0 0 2 0V7a1 1 0 0 0-2 0Z" fill="#000000" opacity="1" data-original="#000000" class=""></path><path d="M40.832 7.555 44 2.8l3.168 4.752a1 1 0 1 0 1.664-1.11l-4-6a1.039 1.039 0 0 0-1.664 0l-4 6a1 1 0 0 0 1.664 1.11v.003Z" fill="#000000" opacity="1" data-original="#000000" class=""></path></g></g></svg>