<svg xmlns="http://www.w3.org/2000/svg" version="1.1" xmlns:xlink="http://www.w3.org/1999/xlink" width="512" height="512" x="0" y="0" viewBox="0 0 50 58" style="enable-background:new 0 0 512 512" xml:space="preserve" class=""><g><g fill="#000" fill-rule="nonzero"><path d="M33 17a1 1 0 0 0-1-1H6a1 1 0 0 0-1 1v5h28v-5ZM8.71 19.71a1.576 1.576 0 0 1-.15.12.757.757 0 0 1-.18.09.636.636 0 0 1-.18.06A1.355 1.355 0 0 1 8 20a.838.838 0 0 1-.38-.08 1.155 1.155 0 0 1-.33-.21l-.12-.15a.757.757 0 0 1-.09-.18.636.636 0 0 1-.06-.18A1.355 1.355 0 0 1 7 19c.004-.265.107-.518.29-.71.097-.088.209-.16.33-.21.182-.08.385-.1.58-.06.063.01.123.031.18.06a.757.757 0 0 1 .18.09l.15.12c.088.097.16.209.21.33A1 1 0 0 1 9 19a1.052 1.052 0 0 1-.29.71Zm4.27-.51a.636.636 0 0 1-.06.18.757.757 0 0 1-.09.18l-.12.15c-.096.09-.208.162-.33.21A1 1 0 0 1 12 20a1.355 1.355 0 0 1-.2-.02.636.636 0 0 1-.18-.06.757.757 0 0 1-.18-.09 1.576 1.576 0 0 1-.15-.12A1.052 1.052 0 0 1 11 19a1 1 0 0 1 .08-.38c.048-.122.12-.234.21-.33l.15-.12a.757.757 0 0 1 .18-.09.636.636 0 0 1 .18-.06.956.956 0 0 1 .58.06c.122.048.234.12.33.21.088.097.16.209.21.33A.838.838 0 0 1 13 19a1.355 1.355 0 0 1-.02.2Zm3.94.18c-.048.122-.12.234-.21.33a1.014 1.014 0 0 1-1.42 0 1.032 1.032 0 0 1-.21-.33A1 1 0 0 1 15 19c.002-.067.008-.134.02-.2a.636.636 0 0 1 .06-.18.757.757 0 0 1 .09-.18c.037-.052.077-.102.12-.15.243-.23.58-.33.91-.27.063.01.123.031.18.06a.757.757 0 0 1 .18.09l.15.12c.043.048.083.098.12.15a.757.757 0 0 1 .09.18c.029.057.05.117.06.18.012.066.018.133.02.2a1 1 0 0 1-.08.38ZM20 28h9.001v5H20z" fill="#000000" opacity="1" data-original="#000000" class=""></path><path d="M33 24H5v17h28V24Zm-22 8a3.779 3.779 0 0 1 4 3.5 3.621 3.621 0 0 1-3 3.376V39a1 1 0 0 1-2 0v-.124A3.621 3.621 0 0 1 7 35.5a1 1 0 0 1 2 0c0 .813.916 1.5 2 1.5s2-.687 2-1.5-.916-1.5-2-1.5a3.779 3.779 0 0 1-4-3.5 3.621 3.621 0 0 1 3-3.376V27a1 1 0 0 1 2 0v.124a3.621 3.621 0 0 1 3 3.376 1 1 0 0 1-2 0c0-.813-.916-1.5-2-1.5s-2 .687-2 1.5.916 1.5 2 1.5Zm11 7h-3a1 1 0 0 1 0-2h3a1 1 0 0 1 0 2Zm8 0h-4a1 1 0 0 1 0-2h4a1 1 0 0 1 0 2Zm1-6a2 2 0 0 1-2 2h-9a2 2 0 0 1-2-2v-5a2 2 0 0 1 2-2h9a2 2 0 0 1 2 2v5ZM31.778 7A3.4 3.4 0 0 1 33 7.227V3a1.129 1.129 0 0 0-1.222-1H6.222A1.129 1.129 0 0 0 5 3v4.227A3.4 3.4 0 0 1 6.222 7h25.556ZM15.02 4.8a.636.636 0 0 1 .06-.18.757.757 0 0 1 .09-.18c.037-.052.077-.102.12-.15.243-.23.58-.33.91-.27.063.01.123.031.18.06a.757.757 0 0 1 .18.09l.15.12c.043.048.083.098.12.15a.757.757 0 0 1 .09.18c.029.057.05.117.06.18.012.066.018.133.02.2a1 1 0 0 1-.08.38c-.048.122-.12.234-.21.33a1.014 1.014 0 0 1-1.42 0 1.032 1.032 0 0 1-.21-.33A1 1 0 0 1 15 5c.002-.067.008-.134.02-.2Zm-3.94-.18c.048-.122.12-.234.21-.33l.15-.12a.757.757 0 0 1 .18-.09.636.636 0 0 1 .18-.06.956.956 0 0 1 .58.06c.122.048.234.12.33.21.088.097.16.209.21.33A.838.838 0 0 1 13 5a1.355 1.355 0 0 1-.02.2.636.636 0 0 1-.06.18.757.757 0 0 1-.09.18l-.12.15c-.096.09-.208.162-.33.21A1 1 0 0 1 12 6a1.355 1.355 0 0 1-.2-.02.636.636 0 0 1-.18-.06.757.757 0 0 1-.18-.09 1.576 1.576 0 0 1-.15-.12A1.052 1.052 0 0 1 11 5a1 1 0 0 1 .08-.38Zm-3.79-.33c.097-.088.209-.16.33-.21.182-.08.385-.1.58-.06.063.01.123.031.18.06a.757.757 0 0 1 .18.09l.15.12c.088.097.16.209.21.33A1 1 0 0 1 9 5a1.052 1.052 0 0 1-.29.71 1.576 1.576 0 0 1-.15.12.757.757 0 0 1-.18.09.636.636 0 0 1-.18.06A1.355 1.355 0 0 1 8 6a.838.838 0 0 1-.38-.08 1.155 1.155 0 0 1-.33-.21l-.12-.15a.757.757 0 0 1-.09-.18.636.636 0 0 1-.06-.18A1.355 1.355 0 0 1 7 5c.004-.265.107-.518.29-.71ZM32 14c.341.003.68.066 1 .184V10a1.129 1.129 0 0 0-1.222-1H6.222A1.129 1.129 0 0 0 5 10v4.184c.32-.118.659-.18 1-.184h26Zm-16.98-2.2a.636.636 0 0 1 .06-.18.757.757 0 0 1 .09-.18c.037-.052.077-.102.12-.15.243-.23.58-.33.91-.27.063.01.123.031.18.06a.757.757 0 0 1 .18.09l.15.12c.043.048.083.098.12.15a.757.757 0 0 1 .09.18c.029.057.05.117.06.18.012.066.018.133.02.2a1 1 0 0 1-.08.38c-.048.122-.12.234-.21.33a1.014 1.014 0 0 1-1.42 0 1.032 1.032 0 0 1-.21-.33A1 1 0 0 1 15 12c.002-.067.008-.134.02-.2Zm-3.94-.18c.048-.122.12-.234.21-.33l.15-.12a.757.757 0 0 1 .18-.09.636.636 0 0 1 .18-.06.956.956 0 0 1 .58.06c.122.048.234.12.33.21.088.097.16.209.21.33A.838.838 0 0 1 13 12a1.355 1.355 0 0 1-.02.2.636.636 0 0 1-.06.18.757.757 0 0 1-.09.18l-.12.15c-.096.09-.208.162-.33.21A1 1 0 0 1 12 13a1.355 1.355 0 0 1-.2-.02.636.636 0 0 1-.18-.06.757.757 0 0 1-.18-.09 1.576 1.576 0 0 1-.15-.12A1.052 1.052 0 0 1 11 12a1 1 0 0 1 .08-.38Zm-3.79-.33c.097-.088.209-.16.33-.21.182-.08.385-.1.58-.06.063.01.123.031.18.06a.757.757 0 0 1 .18.09l.15.12c.088.097.16.209.21.33A1 1 0 0 1 9 12a1.052 1.052 0 0 1-.29.71 1.576 1.576 0 0 1-.15.12.757.757 0 0 1-.18.09.636.636 0 0 1-.18.06A1.355 1.355 0 0 1 8 13a.838.838 0 0 1-.38-.08 1.155 1.155 0 0 1-.33-.21l-.12-.15a.757.757 0 0 1-.09-.18.636.636 0 0 1-.06-.18A1.355 1.355 0 0 1 7 12c.004-.265.107-.518.29-.71ZM3 24v-7H2a2 2 0 0 0-2 2v22h3V24ZM50 19a2 2 0 0 0-2-2h-3.465l2.3 3.445a1 1 0 1 1-1.664 1.11L42 16.8l-3.168 4.752a1 1 0 0 1-1.664-1.11L39.465 17H35v24h15V19Zm-9 2a1 1 0 0 1 2 0v4a1 1 0 0 1-2 0v-4Zm2 18a1 1 0 0 1-2 0v-4a1 1 0 0 1 2 0v4Zm3.555-3.168a1 1 0 0 1-1.387-.277L42 30.8l-3.168 4.752a1 1 0 0 1-1.664-1.11l4-6a1.039 1.039 0 0 1 1.664 0l4 6a1 1 0 0 1-.277 1.39ZM19.48 55l-1.1 1.375A1 1 0 0 0 19.161 58h11.681a1 1 0 0 0 .78-1.626L30.52 55H19.48ZM21 51h8v2h-8zM2 49h46a2 2 0 0 0 2-2v-4H0v4a2 2 0 0 0 2 2ZM41 7v4a1 1 0 0 0 2 0V7a1 1 0 0 0-2 0Z" fill="#000000" opacity="1" data-original="#000000" class=""></path><path d="M38.832 7.555 42 2.8l3.168 4.752a1 1 0 1 0 1.664-1.11l-4-6a1.039 1.039 0 0 0-1.664 0l-4 6a1 1 0 0 0 1.664 1.11v.003Z" fill="#000000" opacity="1" data-original="#000000" class=""></path></g></g></svg>